<?xml version="1.0" encoding="UTF-8"?>
<svg id="_레이어_2" data-name="레이어 2" xmlns="http://www.w3.org/2000/svg" viewBox="0 0 373.85 154.26">
  <defs>
    <style>
      .cls-1 {
        fill: #000846;
        stroke-width: 0px;
      }
	  *{margin:0;padding:0;}
    </style>
  </defs>
  <g id="IMG">
    <g>
      <path class="cls-1" d="M77.13,154.26C34.6,154.26,0,119.66,0,77.13S34.6,0,77.13,0s77.13,34.6,77.13,77.13-34.6,77.13-77.13,77.13ZM77.13,15.43c-34.02,0-61.7,27.68-61.7,61.7s27.68,61.7,61.7,61.7,61.7-27.68,61.7-61.7S111.15,15.43,77.13,15.43Z"/>
      <path class="cls-1" d="M119.73,59.03c-2.33-5.48-5.65-10.4-9.88-14.62-4.25-4.25-9.2-7.58-14.71-9.91-5.71-2.42-11.77-3.64-18.02-3.64s-12.3,1.22-18.02,3.64c-5.51,2.33-10.46,5.67-14.71,9.91-4.25,4.25-7.58,9.2-9.91,14.71-2.42,5.71-3.64,11.77-3.64,18.02s1.23,12.31,3.64,18.02c2.33,5.51,5.67,10.46,9.91,14.71,4.25,4.25,9.2,7.58,14.71,9.91,5.71,2.42,11.77,3.64,18.02,3.64s12.31-1.22,18.02-3.64l-6.01-14.21c-3.8,1.61-7.84,2.42-12.01,2.42s-8.21-.81-12.01-2.42c-3.67-1.55-6.97-3.78-9.81-6.61-2.84-2.84-5.06-6.14-6.62-9.81-1.61-3.8-2.42-7.84-2.42-12.01s.81-8.21,2.42-12.01c1.55-3.67,3.78-6.97,6.62-9.81,2.83-2.84,6.14-5.06,9.81-6.61,3.8-1.61,7.84-2.42,12.01-2.42s8.21.81,12.01,2.42c3.67,1.55,6.97,3.78,9.81,6.61,2.82,2.82,5.03,6.1,6.59,9.74l-9.12,3.87,25,14.52,6.92-28.07-8.6,3.65Z"/>
    </g>
    <g>
      <g>
        <g>
          <polygon class="cls-1" points="332.92 132.23 332.92 129.46 330.61 129.46 330.61 126.09 327.54 126.09 327.54 129.46 325.79 129.46 325.79 132.23 327.54 132.23 327.54 140.49 326.34 140.49 329.12 144.19 331.89 140.49 330.61 140.49 330.61 132.23 332.92 132.23"/>
          <path class="cls-1" d="M294.44,139.25l-2.29-4.16h-2.87v4.16h-3.14v-13.16h8.77c1.35,0,2.29.94,2.29,2.29v4.41c0,1.1-.63,1.92-1.57,2.2l2.51,4.26h-3.69ZM294.04,128.91h-4.78v3.35h4.78v-3.35Z"/>
          <path class="cls-1" d="M299.08,128.58v-2.5h3.08v2.5h-3.08ZM299.08,139.25v-9.79h3.08v9.79h-3.08Z"/>
          <path class="cls-1" d="M306.27,142.71c-1.32,0-2.26-.91-2.26-2.23v-1.54h3.08v1.07h3.16v-1.7h-4.29c-1.32,0-2.1-.75-2.1-2.07v-4.57c0-1.32.94-2.2,2.26-2.2h4.95c1.32,0,2.26.88,2.26,2.2v8.81c0,1.32-.94,2.23-2.26,2.23h-4.79ZM310.24,132.17h-3.31v3.6h3.31v-3.6Z"/>
          <path class="cls-1" d="M321.4,139.25v-7.02h-3.31v7.02h-3.08v-13.16h3.08v3.38h4.13c1.32,0,2.26.88,2.26,2.2v7.59h-3.08Z"/>
        </g>
        <g>
          <path class="cls-1" d="M345.26,129.46h-7.21v11.02h-1.24l2.78,3.71,2.78-3.71h-1.23v-8.26h3.31v7.02h3.08v-7.59c0-1.32-.94-2.2-2.26-2.2Z"/>
          <path class="cls-1" d="M351.32,139.25c-1.32,0-2.26-.91-2.26-2.23v-5.36c0-1.32.94-2.2,2.26-2.2h4.95c1.32,0,2.26.88,2.26,2.2v5.36c0,1.32-.94,2.23-2.26,2.23h-4.95ZM355.45,132.23h-3.31v4.26h3.31v-4.26Z"/>
          <path class="cls-1" d="M367.91,139.25l-.85-3.41c-.16-.69-.3-1.37-.46-2.21-.14.85-.3,1.52-.46,2.21l-.85,3.41h-3.83l-2.1-9.79h3.13l1.3,6.74,1.59-6.74h2.45l1.59,6.74,1.3-6.74h3.13l-2.1,9.79h-3.83Z"/>
        </g>
      </g>
      <path class="cls-1" d="M193.98,139.23c-1.35,0-2.29-.94-2.29-2.29v-8.58c0-1.35.94-2.29,2.29-2.29h6.86c1.35,0,2.29.94,2.29,2.29v2.31h-3.14v-1.78h-5.17v7.51h5.17v-2.04h3.14v2.58c0,1.35-.94,2.29-2.29,2.29h-6.86Z"/>
      <path class="cls-1" d="M206.94,139.23c-1.32,0-2.26-.91-2.26-2.23v-5.36c0-1.32.94-2.2,2.26-2.2h4.95c1.32,0,2.26.88,2.26,2.2v5.36c0,1.32-.94,2.23-2.26,2.23h-4.95ZM211.07,132.21h-3.31v4.26h3.31v-4.26Z"/>
      <path class="cls-1" d="M218.86,139.23v3.38h-3.08v-13.16h7.21c1.32,0,2.26.91,2.26,2.23v5.36c0,1.32-.94,2.2-2.26,2.2h-4.13ZM222.18,132.21h-3.31v4.26h3.31v-4.26Z"/>
      <path class="cls-1" d="M227.44,142.59l2.31-4.48-3.97-8.67h3.74l1.96,4.84,1.98-4.84h3.74l-6.02,13.15h-3.74Z"/>
      <path class="cls-1" d="M237.74,139.23v-7.59c0-1.32.94-2.2,2.26-2.2h4.37v2.76h-3.55v7.02h-3.08Z"/>
      <path class="cls-1" d="M245.5,128.57v-2.5h3.08v2.5h-3.08ZM245.5,139.23v-9.79h3.08v9.79h-3.08Z"/>
      <path class="cls-1" d="M252.64,142.69c-1.32,0-2.26-.91-2.26-2.23v-1.54h3.08v1.07h3.16v-1.7h-4.29c-1.32,0-2.1-.75-2.1-2.07v-4.57c0-1.32.94-2.2,2.26-2.2h4.95c1.32,0,2.26.88,2.26,2.2v8.81c0,1.32-.94,2.23-2.26,2.23h-4.79ZM256.61,132.15h-3.31v3.6h3.31v-3.6Z"/>
      <path class="cls-1" d="M267.72,139.23v-7.02h-3.31v7.02h-3.08v-13.16h3.08v3.38h4.13c1.32,0,2.26.88,2.26,2.2v7.59h-3.08Z"/>
      <path class="cls-1" d="M275.9,139.23c-1.32,0-2.26-.88-2.26-2.2v-4.82h-1.74v-2.76h1.74v-3.38h3.08v3.38h2.31v2.76h-2.31v4.45h2.31v2.58h-3.13Z"/>
    </g>
    <g>
      <g>
        <path class="cls-1" d="M209.82,46.91c-2.58-3.32-4.96-6.79-7.15-9.88-2.34,3.32-5.11,7.15-7.97,10.54l-5.27-4.33c2.77-3.67,5.74-8.04,8.08-11.87.7-1.17,1.05-2.73,1.05-4.26v-4.22h-6.6v-7.07h21.28v7.07h-6.48v4.22c0,1.52.35,3.05,1.05,4.22,2.11,3.55,5,7.73,7.54,11.13l-5.54,4.45ZM216.42,49.72v-17.41h-6.01v-6.83h6.01v-10.23h7.65v34.48h-7.65Z"/>
        <path class="cls-1" d="M247.27,34.49c-3.01-1.84-5.43-3.59-7.81-5.51-2.58,2.07-5.74,3.98-8.82,5.62l-3.75-5.58c2.73-1.56,5.27-3.12,7.34-4.92.82-.7,1.02-1.09,1.05-2.03h-6.68v-6.44h21.55v6.44h-6.68c0,.7.16,1.25.78,1.8,2.07,1.87,4.45,3.67,6.95,5.27l-3.94,5.35ZM252.34,49.92v-7.77h-21.44v-6.4h29.09v14.17h-7.65ZM252.34,34.57V15.24h7.65v6.17h3.83v6.56h-3.83v6.6h-7.65Z"/>
        <path class="cls-1" d="M290.8,41.64v-2.23h-8.63v-5.62h8.63v-4.29l-2.85,2.85h-7.89v6.6h-8.04v-6.6h-6.99v-5.58h15.34v-5.78h-14.21v-5.62h21.87v11.4h2.77v-11.52h7.65v26.4h-7.65ZM268,49.72v-9.88h7.65v4.41h22.96v5.47h-30.61Z"/>
        <path class="cls-1" d="M302.32,48.47v-6.56h13v-4.69h-10.82V15.83h7.65v4.41h14.76v-4.41h7.65v21.4h-10.82v4.69h13v6.56h-34.44ZM326.92,26.8h-14.76v3.87h14.76v-3.87Z"/>
        <path class="cls-1" d="M339.41,48.47v-6.05h13v-2.54h-1.33c-5.9,0-9.88-2.62-9.88-7.89s3.98-7.89,9.88-7.89h11.09c5.9,0,9.88,2.62,9.88,7.89s-3.98,7.89-9.88,7.89h-1.33v2.54h13v6.05h-34.44ZM340.81,22.86v-5.9h11.36v-2.66h8.98v2.66h11.28v5.9h-31.63ZM350.89,30.39c-1.37,0-2.11.62-2.11,1.6s.74,1.6,2.11,1.6h11.48c1.37,0,2.11-.62,2.11-1.6s-.74-1.6-2.11-1.6h-11.48Z"/>
      </g>
      <g>
        <g>
          <polygon class="cls-1" points="233.7 84.38 233.7 76.1 228.16 76.1 228.16 61.87 219.1 61.87 219.1 105.14 215.02 105.14 223.44 116.37 231.85 105.14 228.16 105.14 228.16 84.38 233.7 84.38"/>
          <path class="cls-1" d="M215.96,62.33h-9.06v12.01h-6.01v-12.01h-9.06v37.71h24.12v-37.71ZM206.9,92.42h-6.01v-10.54h6.01v10.54Z"/>
        </g>
        <path class="cls-1" d="M235.27,101.2v-7.76h15.39v-4.11h-12.8v-17.05h26.52v-2.4h-26.52v-7.3h35.58v16.77h-26.52v2.45h26.99v7.53h-13.26v4.11h15.39v7.76h-40.76Z"/>
        <g>
          <polygon class="cls-1" points="328.29 105.14 328.29 61.87 319.23 61.87 319.23 105.14 315.34 105.14 323.76 116.37 332.17 105.14 328.29 105.14"/>
          <path class="cls-1" d="M309.34,80.45c-.74-1.39-1.06-2.73-1.06-4.53v-4.99h8.13v-8.36h-26.11v8.36h8.27v4.99c0,1.8-.32,3.42-1.16,4.81-2.68,4.53-6.61,9.93-10.07,14.05l6.19,5.36c3.51-3.84,7.21-8.46,9.98-12.38,2.45,3.65,5.54,7.86,8.64,11.6l6.56-5.36c-3.19-3.97-7.02-9.29-9.38-13.54Z"/>
        </g>
        <path class="cls-1" d="M333.09,83.73v-7.02h29.57v-7.67h-27.45v-7.02h36.51v14.69h2.13v7.02h-40.76ZM335.21,102.67v-16.64h36.51v16.64h-36.51ZM362.66,93.06h-18.39v2.59h18.39v-2.59Z"/>
      </g>
    </g>
  </g>
</svg>